<?xml version="1.0" encoding="utf-8"?>
<!-- Generator: Adobe Illustrator 22.0.0, SVG Export Plug-In . SVG Version: 6.00 Build 0)  -->
<svg version="1.1" id="Layer_1" xmlns="http://www.w3.org/2000/svg" xmlns:xlink="http://www.w3.org/1999/xlink" x="0px" y="0px"
	 viewBox="0 0 230 100" style="enable-background:new 0 0 230 100;" xml:space="preserve">
<style type="text/css">
	.st0{fill:#FFF;stroke:#FFF;stroke-miterlimit:10;}
	.st1{fill:none;stroke:#FFF;stroke-width:2.0789;stroke-linecap:round;stroke-miterlimit:10;}
	.st2{fill:none;stroke:#FFF;stroke-width:0.6237;stroke-linecap:round;stroke-miterlimit:10;}
	.st3{fill:#FFF;}
	.st4{fill:none;stroke:#FFF;stroke-width:0.6237;stroke-miterlimit:10;}
	.st5{fill:none;stroke:#FFF;stroke-width:4.1579;stroke-linecap:round;stroke-miterlimit:10;}
</style>
<g id="XMLID_4_">
	<path id="XMLID_1_" class="st0" d="M114.3,51.8H97.2c-3.1,0-5.6-2.5-5.6-5.6v-5.9c0-2.2,1.8-4,4-4h15.1c2.1,0,3.8,1.7,3.8,3.8v11.7
		H114.3z"/>
	<path id="XMLID_3_" class="st0" d="M132,51.8h-17.2V40.1c0-2.1,1.7-3.8,3.8-3.8h15.1c2.2,0,4,1.8,4,4v5.9
		C137.6,49.3,135.1,51.8,132,51.8z"/>
</g>
<g id="XMLID_6_">
	<line id="XMLID_13_" class="st1" x1="100.5" y1="55.9" x2="99.3" y2="59.5"/>
	<line id="XMLID_12_" class="st1" x1="129.8" y1="59.5" x2="128.6" y2="55.9"/>
</g>
<circle id="XMLID_2_" class="st1" cx="114.6" cy="37.1" r="34.5"/>
<path id="XMLID_17_" class="st2" d="M98.1,26.5h7v-1.2c0-0.9-0.5-1.8-1.2-2.4c-1.2-0.9-2.6-1.3-4-1.3s-2.8,0.4-4,1.3
	c-0.8,0.6-1.2,1.5-1.2,2.4v1.2H98.1"/>
<path id="XMLID_9_" class="st3" d="M98.2,21.6h3.5l-1.2-2.3c-0.2-0.5-0.9-0.5-1,0L98.2,21.6z"/>
<line id="XMLID_18_" class="st4" x1="99.9" y1="19.8" x2="99.9" y2="5.9"/>
<path id="XMLID_21_" class="st3" d="M101.7,26.6c0,1.1-0.8,2-1.8,2s-1.8-0.9-1.8-2v-0.1h3.6C101.7,26.6,101.7,26.6,101.7,26.6z"/>
<path id="XMLID_11_" class="st5" d="M142.9,41.5h-2v3.4c0,5.5-1.5,10-10,10H98.2c-8.3,0-10-4.5-10-10v-3.4h-2"/>

</svg>
