<?xml version="1.0" encoding="utf-8"?>
<!-- Generator: Adobe Illustrator 22.0.0, SVG Export Plug-In . SVG Version: 6.00 Build 0)  -->
<svg version="1.1" id="Layer_1" xmlns="http://www.w3.org/2000/svg" xmlns:xlink="http://www.w3.org/1999/xlink" x="0px" y="0px"
	 viewBox="0 0 230 100" style="enable-background:new 0 0 230 100;" xml:space="preserve">
<style type="text/css">
	.st0{fill:#0E808A;stroke:#0E808A;stroke-miterlimit:10;}
	.st1{fill:none;stroke:#0E808A;stroke-width:2.0789;stroke-linecap:round;stroke-miterlimit:10;}
	.st2{fill:none;stroke:#0E808A;stroke-width:0.6237;stroke-linecap:round;stroke-miterlimit:10;}
	.st3{fill:#0E808A;}
	.st4{fill:none;stroke:#0E808A;stroke-width:0.6237;stroke-miterlimit:10;}
	.st5{fill:none;stroke:#0E808A;stroke-width:4.1579;stroke-linecap:round;stroke-miterlimit:10;}
</style>
<g id="XMLID_4_">
	<path id="XMLID_1_" class="st0" d="M114.3,51.8H97.2c-3.1,0-5.6-2.5-5.6-5.6v-5.9c0-2.2,1.8-4,4-4h15.1c2.1,0,3.8,1.7,3.8,3.8v11.7
		H114.3z"/>
	<path id="XMLID_3_" class="st0" d="M132,51.8h-17.2V40.1c0-2.1,1.7-3.8,3.8-3.8h15.1c2.2,0,4,1.8,4,4v5.9
		C137.6,49.3,135.1,51.8,132,51.8z"/>
</g>
<g id="XMLID_6_">
	<line id="XMLID_13_" class="st1" x1="100.5" y1="55.9" x2="99.3" y2="59.5"/>
	<line id="XMLID_12_" class="st1" x1="129.8" y1="59.5" x2="128.6" y2="55.9"/>
</g>
<circle id="XMLID_2_" class="st1" cx="114.6" cy="37.1" r="34.5"/>
<path id="XMLID_17_" class="st2" d="M98.1,26.5h7v-1.2c0-0.9-0.5-1.8-1.2-2.4c-1.2-0.9-2.6-1.3-4-1.3s-2.8,0.4-4,1.3
	c-0.8,0.6-1.2,1.5-1.2,2.4v1.2H98.1"/>
<path id="XMLID_9_" class="st3" d="M98.2,21.6h3.5l-1.2-2.3c-0.2-0.5-0.9-0.5-1,0L98.2,21.6z"/>
<line id="XMLID_18_" class="st4" x1="99.9" y1="19.8" x2="99.9" y2="5.9"/>
<path id="XMLID_21_" class="st3" d="M101.7,26.6c0,1.1-0.8,2-1.8,2s-1.8-0.9-1.8-2v-0.1h3.6C101.7,26.6,101.7,26.6,101.7,26.6z"/>
<path id="XMLID_11_" class="st5" d="M142.9,41.5h-2v3.4c0,5.5-1.5,10-10,10H98.2c-8.3,0-10-4.5-10-10v-3.4h-2"/>
<g>
	<path class="st3" d="M22.2,93.1c0,3.2-2.6,4.1-5.6,4.2c-1.3,0.1-2.4,0-3.7,0c-0.8,0-1.8-0.3-1.8-2.2c0-2.6-0.1-7.5-0.1-10.1
		c0-0.3,0-0.5,0.4-0.8L10,84.5c-0.5-0.5-0.5-2.6,0.6-2.6c1.3-0.1,3-0.2,4.3-0.2c3.7,0,6.7,0.8,6.7,4.2c0,1.6-0.7,3-2.8,3.8
		C21.3,90,22.2,91.5,22.2,93.1z M14,88.6h3.4c0.5-0.3,0.9-1.2,0.9-2.1c0-1.9-1.3-2.4-3.3-2.4c-0.3,0-0.7,0-1.1,0v4.5H14z M19,93
		c0-1.9-1.7-2.4-4.9-2v4c0.8,0.1,1.4,0.1,1.9,0.1C18,95,19,94.2,19,93z"/>
	<path class="st3" d="M36.8,92.4c0.5,1.4,1.1,2.9,1.7,4c-0.7,0.6-1.5,1-2.3,1c-1,0-1.3-0.7-1.5-1.2l-0.9-3c-2,0.1-4,0.1-6,0l0,0
		c-0.4,1.2-0.7,2.5-0.9,3.9c-0.4,0.1-1.1,0.2-1.6,0.2c-1.2,0-1.8-0.6-1.4-1.8l3.3-9.6c0.6-1.8,0.9-2.9,1.2-4.1
		c1-0.2,1.6-0.4,2.6-0.4c1.7,0,2.5,0.7,2.9,2.1L36.8,92.4z M28.5,91.1l4.6-0.2l-2.3-7.3L28.5,91.1z"/>
	<path class="st3" d="M53.5,89.6c0,5.1-2.9,7.6-7.3,7.8c-1,0-3.1,0-3.5,0c-0.8,0-1.8-0.4-1.8-2.2c-0.1-3.9-0.1-5.7,0-10.1
		c0-0.3,0-0.5,0.3-0.8c-0.4,0-0.8,0.1-1.2,0.1c-0.5-0.5-0.5-2.5,0.3-2.6c1.8-0.2,3.7-0.2,4.9-0.2C50.3,81.8,53.5,84.2,53.5,89.6z
		 M50.3,89.5c0-4.2-2.4-5.3-5.9-5.3H44V95c0.6,0.1,1.2,0.1,1.7,0.1C48.6,95,50.3,93,50.3,89.5z"/>
	<path class="st3" d="M62.1,97.3c-2.2,0.1-3.9,0-6.3,0c-0.3-0.8-0.3-2.6,0.8-2.6h1.3c-0.1-3.7-0.1-6.9,0-10.3c-0.6,0-1.3,0-2.1,0
		c-0.3-0.8-0.3-2.6,0.8-2.6c2-0.1,3.9,0,6.2,0c0.3,0.7,0.4,2.6-0.7,2.6c-0.4,0-0.9,0-1.3,0v10.3c0.6,0,1.3,0,2,0
		C63.1,95.5,63.1,97.3,62.1,97.3z"/>
	<path class="st3" d="M74.4,89.7c1.5,2.1,3.3,4.3,5,6c-0.4,1.4-1.2,1.8-1.9,1.8c-0.6,0-1.2-0.3-2.1-1.4c-1.2-1.3-2-2.8-2.5-4.2
		l-2.7,4.2c-0.8,1.2-1.3,1.3-2.2,1.3c-1,0-1.7-0.8-1.7-2c0-4.6,0-9.1,0-13.7c0.5-0.2,1.1-0.3,1.7-0.3c0.9,0,1.4,0.4,1.4,1.1v4.8
		c0,0.9-0.1,3.4-0.2,6.5l3.4-5.8c0.4-1.9,1.4-4.4,2.4-5.6c0.5-0.6,1.1-0.9,1.8-0.9c0.9,0,1.5,0.4,2.1,1.3L74.4,89.7z"/>
	<path class="st3" d="M99.2,89.6c0,5.1-2.9,7.6-7.3,7.8c-1,0-3.1,0-3.5,0c-0.8,0-1.8-0.4-1.8-2.2c-0.1-3.9-0.1-5.7,0-10.1
		c0-0.3,0-0.5,0.3-0.8c-0.4,0-0.8,0.1-1.2,0.1c-0.5-0.5-0.5-2.5,0.3-2.6c1.8-0.2,3.7-0.2,4.9-0.2C96,81.8,99.2,84.2,99.2,89.6z
		 M96,89.5c0-4.2-2.4-5.3-5.9-5.3h-0.4V95c0.6,0.1,1.2,0.1,1.7,0.1C94.3,95,96,93,96,89.5z"/>
	<path class="st3" d="M110.6,97.4c-2.5,0-4.4,0-6.8,0c-1.4,0-1.8-0.9-1.8-2.2c0-2.4,0-5.2,0-10.1c0-0.3,0-0.6,0.5-0.8
		c-0.5,0-1,0-1.4,0c-0.3-0.5-0.2-2.3,1-2.3c3.8-0.1,6.5,0,9.5-0.1c0.5,2.6,0,2.6-3.6,2.6c-1.1,0-2.1,0-3,0v4.2
		c1.4,0,4.1-0.1,5.5-0.1c0.5,1.4,0.3,2.7-1.4,2.6l-4.1-0.1V95l6.9-0.1C112.2,96.1,111.8,97.3,110.6,97.4z M106.3,80
		c-0.9-0.3-1.4-0.9-0.9-1.6c0.8-1.2,1.4-2.1,1.9-3c0.5,0,1,0.1,1.3,0.3c0.3,0.2,0.5,0.6,0.5,0.9c0,0.2-0.1,0.5-0.4,0.9L106.3,80z"/>
	<path class="st3" d="M113.9,89.8c0-4.3,2.3-8.2,6.9-8.2c2.9,0,5.2,1.6,5.2,5c0,1.9-0.8,2.5-3.2,1.9c0.1-0.4,0.1-1.3,0.1-1.7
		c0-1.9-0.9-2.9-2.4-2.8c-2.5,0.2-3.5,3.1-3.4,5.8c0.1,3.2,1.6,5.1,4.1,5c1.6,0,2.6-1.1,3.5-2.3c1.8,0.7,1.9,1.9,1.2,3
		c-0.8,1.1-2.5,2.1-5.1,2.1C116.4,97.5,113.9,94.7,113.9,89.8z"/>
	<path class="st3" d="M128.6,89.5c0-4.7,2.9-7.9,7.2-7.9c4.4,0,7.2,3.3,7.2,7.9c0,4.5-2.9,8.1-7.2,8.1
		C131.5,97.5,128.6,94.2,128.6,89.5z M139.9,89.3c-0.1-3-1.4-5.3-4.2-5.2c-2.7,0.1-3.9,2.5-3.8,5.5c0.1,2.7,1.3,5.5,4.2,5.4
		C139,94.9,139.9,92,139.9,89.3z"/>
	<path class="st3" d="M162.7,95.9c-0.6,1.2-1.3,1.6-2.2,1.6c-0.7,0-1.2-0.3-1.7-1c-0.6-0.8-1.2-2.2-2.2-4.3c-0.3,0-0.6,0-0.9,0h-1.8
		c0,1.9,0,3.5,0,4.8c-0.3,0.1-1.1,0.3-1.6,0.3c-1.3,0-1.6-0.7-1.6-1.3c0-3.9,0.1-8.7,0.1-11c0-0.2,0-0.5,0.3-0.7
		c-0.4,0-0.8,0.1-1.2,0.1c-0.5-0.5-0.5-2.6,0.6-2.7c2.7-0.2,3.6-0.2,4.2-0.2c4.6,0,7.4,1.4,7.4,5.2c0,2.2-1,3.9-2.8,4.7
		C160.3,93.2,161.5,94.9,162.7,95.9z M157.1,89.9c1.1-0.6,1.7-1.4,1.7-2.9c0-2.4-1.5-2.9-3.8-2.9c-0.4,0-0.8,0-1.2,0
		c0,0.6,0,3.9,0,5.8H157.1z"/>
	<path class="st3" d="M164.6,89.5c0-4.7,2.9-7.9,7.2-7.9c4.4,0,7.2,3.3,7.2,7.9c0,4.5-2.9,8.1-7.2,8.1
		C167.5,97.5,164.6,94.2,164.6,89.5z M175.8,89.3c-0.1-3-1.4-5.3-4.2-5.2c-2.7,0.1-3.9,2.5-3.8,5.5c0.1,2.7,1.3,5.5,4.2,5.4
		C174.9,94.9,175.9,92,175.8,89.3z"/>
	<path class="st3" d="M192.1,83.9c-1,1.9-2.1,3.8-4.1,7.4v6c-0.8,0.1-1,0.2-1.9,0.2c-1.1,0-1.3-0.6-1.3-1.2v-5
		c-1.5-3-3.2-5.7-4.9-8.6c0.6-0.8,1.4-1.1,2.1-1.1c0.7,0,1,0.2,1.2,0.7c1.1,2,1.4,2.9,3.3,7.1c1.6-3.6,2.9-6.3,3.2-7.6
		C192.4,81.5,192.8,82.7,192.1,83.9z"/>
	<path class="st3" d="M206.3,92.4c0.5,1.4,1.1,2.9,1.7,4c-0.7,0.6-1.5,1-2.3,1c-1,0-1.3-0.7-1.5-1.2l-0.9-3c-2,0.1-4,0.1-6,0l0,0
		c-0.4,1.2-0.7,2.5-0.9,3.9c-0.4,0.1-1.1,0.2-1.6,0.2c-1.2,0-1.8-0.6-1.4-1.8l3.3-9.6c0.6-1.8,0.9-2.9,1.2-4.1
		c1-0.2,1.6-0.4,2.6-0.4c1.7,0,2.5,0.7,2.9,2.1L206.3,92.4z M198,91.1l4.6-0.2l-2.3-7.3L198,91.1z"/>
	<path class="st3" d="M211.7,97.3c-1.4,0-1.8-0.8-1.8-2.1c0-3,0.2-9,0-13.4c0.6-0.1,1-0.2,1.5-0.2c1,0,1.7,0.2,1.7,1v12.1
		c3.1,0,4.1,0,6.4-0.1c0.3,1.6,0,2.8-1.9,2.8C215.5,97.4,213.6,97.4,211.7,97.3z"/>
</g>
</svg>
